<?xml version="1.0" standalone="no"?>
<!DOCTYPE svg PUBLIC "-//W3C//DTD SVG 20010904//EN"
 "http://www.w3.org/TR/2001/REC-SVG-20010904/DTD/svg10.dtd">
<svg version="1.0" xmlns="http://www.w3.org/2000/svg"
 width="512.000000pt" height="512.000000pt" viewBox="0 0 512.000000 512.000000"
 preserveAspectRatio="xMidYMid meet">

<g transform="translate(0.000000,512.000000) scale(0.100000,-0.100000)"
fill="#000000" stroke="none">
<path d="M1027 4836 c-55 -20 -113 -63 -148 -110 -59 -81 -59 -75 -59 -810 l0
-670 -39 -76 c-93 -178 -162 -396 -197 -615 -23 -148 -23 -430 0 -580 70 -450
268 -832 593 -1146 185 -178 377 -307 596 -399 255 -108 451 -150 732 -157
356 -9 654 56 951 207 514 264 900 741 1038 1286 118 467 63 984 -150 1394
l-39 75 -5 696 -5 695 -30 59 c-35 69 -103 126 -179 151 -97 32 -284 -4 -498
-96 -240 -103 -441 -274 -551 -469 -29 -52 -31 -53 -66 -48 -242 37 -271 39
-461 34 -122 -3 -232 -11 -294 -23 -95 -17 -100 -17 -110 0 -153 255 -346 417
-631 529 -192 76 -361 103 -448 73z m154 -201 c153 -32 346 -111 459 -188 92
-63 206 -185 263 -283 4 -7 -16 -20 -56 -34 -97 -35 -271 -124 -376 -193 -137
-91 -234 -172 -350 -293 l-101 -106 0 505 c0 349 3 514 11 536 9 25 58 71 76
71 1 0 34 -7 74 -15z m2860 -1 c59 -30 59 -35 59 -584 0 -275 -3 -500 -6 -500
-3 0 -42 39 -87 87 -198 209 -461 386 -724 488 -45 17 -70 32 -66 39 37 64 93
133 154 191 143 135 280 208 504 266 131 33 128 33 166 13z m-1581 -1109 l0
-525 28 -31 c24 -26 36 -32 72 -32 36 0 48 6 72 32 l28 31 0 527 0 526 83 -6
c45 -3 115 -13 155 -22 l72 -17 0 -344 c0 -367 3 -389 49 -414 39 -20 91 -12
122 19 l29 29 0 321 c0 299 1 321 18 321 25 0 250 -111 334 -166 395 -253 681
-661 781 -1114 14 -63 29 -144 32 -180 3 -36 8 -75 11 -87 l4 -22 -373 -3
c-420 -3 -416 -3 -438 -77 -10 -34 -9 -44 8 -73 33 -58 34 -58 434 -58 l367 0
-5 -47 c-15 -169 -70 -400 -125 -521 l-23 -50 -260 154 c-143 85 -271 158
-284 161 -58 15 -130 -61 -115 -122 10 -41 43 -65 308 -219 141 -83 256 -154
256 -159 0 -16 -102 -161 -171 -243 -626 -747 -1733 -857 -2490 -246 -137 110
-341 341 -397 448 -11 20 5 31 271 185 155 90 292 174 305 186 34 34 31 96 -7
134 -54 53 -70 47 -375 -131 -151 -88 -281 -162 -289 -165 -10 -4 -22 16 -44
72 -64 162 -104 327 -119 486 l-7 76 401 3 402 3 25 26 c56 56 34 147 -42 168
-24 7 -181 11 -416 11 l-377 0 4 23 c3 12 8 51 11 87 9 95 52 282 90 385 132
367 366 666 695 890 86 59 334 185 364 185 14 0 16 -32 16 -321 l0 -321 29
-29 c31 -31 83 -39 122 -19 46 25 49 47 49 414 l0 345 53 11 c103 22 143 28
200 29 l57 1 0 -525z"/>
<path d="M1834 2702 c-54 -43 -55 -112 -3 -156 54 -45 121 -30 155 36 19 37
12 73 -24 111 -31 32 -94 37 -128 9z"/>
<path d="M3161 2699 c-50 -47 -50 -111 1 -154 39 -33 87 -33 126 0 16 14 33
37 36 51 9 36 -10 89 -39 108 -35 23 -96 21 -124 -5z"/>
<path d="M2305 2365 c-5 -2 -26 -6 -46 -9 -88 -15 -180 -115 -195 -213 -12
-79 11 -132 148 -351 135 -215 164 -254 211 -278 l27 -15 0 -118 c0 -103 -3
-123 -23 -161 -57 -108 -211 -108 -268 0 -11 19 -19 47 -19 63 0 95 -106 143
-172 76 -30 -29 -30 -32 -26 -102 10 -155 111 -273 268 -313 106 -27 240 4
311 72 l26 25 31 -26 c124 -104 314 -107 447 -7 52 40 109 122 125 183 6 20
11 62 11 94 2 52 -1 61 -25 82 -66 56 -166 6 -166 -84 0 -40 -31 -94 -70 -121
-44 -30 -119 -30 -168 0 -56 34 -72 83 -72 220 l0 117 28 15 c15 8 39 27 54
43 44 47 287 443 299 487 23 85 -18 210 -86 262 -73 56 -90 58 -375 61 -146 1
-269 1 -275 -2z m526 -215 c36 -20 21 -57 -103 -255 -118 -188 -148 -222 -183
-209 -22 9 -265 400 -265 427 0 13 5 28 12 35 16 16 510 17 539 2z"/>
</g>
</svg>
